<svg xmlns="http://www.w3.org/2000/svg" width="115" height="33" viewBox="0 0 168 48"><g><path d="M163.571,15.285h0.357c0.355,0,0.532,0.155,0.599,0.507c0.09,0.331,0.156,0.617,0.269,0.749h1.2c-0.066-0.11-0.133-0.331-0.243-0.837c-0.112-0.485-0.335-0.771-0.713-0.881v-0.044c0.468-0.132,0.803-0.441,0.803-0.793c0-0.353-0.156-0.617-0.379-0.75c-0.269-0.176-0.601-0.287-1.425-0.287c-0.734,0-1.336,0.089-1.579,0.132v3.46h1.111V15.285L163.571,15.285z M163.594,13.72c0.112,0,0.246-0.022,0.379-0.022c0.379,0,0.622,0.155,0.622,0.442c0,0.265-0.243,0.418-0.666,0.418h-0.335V13.72L163.594,13.72z M164.062,10.965c-2.203,0-3.961,1.698-3.961,3.791c0,2.116,1.758,3.813,3.961,3.813c2.225,0,3.938-1.697,3.938-3.813c0-2.093-1.714-3.791-3.917-3.791H164.062L164.062,10.965zM164.039,11.913c1.625,0,2.805,1.277,2.805,2.843c0,1.587-1.18,2.888-2.782,2.866c-1.602,0-2.781-1.279-2.781-2.844c0-1.587,1.18-2.865,2.735-2.865H164.039L164.039,11.913z"></path><path d="M9.734,0l-5.22,25.856c-0.316,1.513-0.58,3.081-0.58,4.646c0,4.544,3.059,7.155,9.176,7.155c11.601,0,17.085-9.506,17.085-17.758c0-4.544-2.426-8.932-7.805-8.932c-3.164,0-6.064,1.41-7.963,3.656h-0.106L17.381,0H9.734L9.734,0z M12.53,24.235c0.896-4.439,3.586-7.155,6.328-7.155c2.32,0,3.375,1.88,3.375,4.387c0,4.441-3.111,10.498-7.541,10.498c-1.793,0-2.847-0.99-2.901-2.818c-0.052-1.046,0.105-1.986,0.264-2.82L12.53,24.235L12.53,24.235z"></path><path d="M37.623,37.084l4.905-25.541h-7.594l-4.905,25.541H37.623L37.623,37.084z M39.732,8.357c2.426,0,4.483-1.567,4.483-4.231c0-2.246-1.583-3.708-3.797-3.708c-2.32,0-4.377,1.724-4.377,4.283c0,2.193,1.529,3.656,3.638,3.656H39.732L39.732,8.357z"></path><path d="M0,48h50.621c1.074-0.004,2.155-0.095,3.253-0.261c1.168-0.177,2.312-0.471,3.41-0.889c1.107-0.425,2.126-1,3.067-1.724c1.028-0.825,1.89-1.818,2.593-2.984c0.694-1.167,1.274-2.457,1.723-3.865c0.448-1.418,0.826-2.907,1.116-4.484l3.902-21.049c-1.344-0.575-2.821-1.019-4.421-1.324c-1.59-0.296-3.305-0.453-5.124-0.453c-2.25,0.009-4.289,0.322-6.108,0.94c-1.829,0.609-3.437,1.462-4.834,2.542c-1.389,1.088-2.558,2.341-3.499,3.76c-0.949,1.419-1.652,2.952-2.136,4.58c-0.475,1.629-0.721,3.29-0.721,4.997c0.018,1.243,0.22,2.422,0.598,3.517c0.378,1.089,0.932,2.055,1.644,2.892c0.712,0.834,1.582,1.488,2.593,1.956c1.02,0.47,2.162,0.716,3.445,0.724c1.52,0,2.883-0.306,4.086-0.923c1.204-0.619,2.303-1.558,3.296-2.838h0.106l-0.422,2.142c-0.36,1.698-0.897,3.039-1.617,4.039c-0.73,0.994-1.609,1.708-2.637,2.132c-0.993,0.406-2.092,0.615-3.314,0.619H1.207L0,48L0,48z M60.141,24.025c-0.272,1.455-0.712,2.707-1.301,3.754c-0.598,1.052-1.292,1.862-2.074,2.436c-0.783,0.566-1.591,0.854-2.426,0.864c-0.773-0.01-1.416-0.203-1.934-0.584c-0.519-0.385-0.905-0.905-1.161-1.567c-0.255-0.671-0.387-1.43-0.387-2.29c0.009-1.229,0.202-2.428,0.58-3.604c0.387-1.167,0.932-2.229,1.626-3.177c0.703-0.958,1.529-1.715,2.488-2.272c0.958-0.565,2.013-0.861,3.164-0.87c0.536,0,1.054,0.043,1.547,0.139c0.492,0.087,0.896,0.191,1.195,0.331L60.141,24.025L60.141,24.025z"></path><path d="M68.403,35.621c1.529,1.099,4.641,1.933,7.857,1.985c6.856,0.052,11.866-3.134,11.866-8.982c0-3.554-2.953-5.538-5.801-6.948c-2.057-0.993-3.111-1.88-3.111-2.925c0-1.41,1.318-2.246,3.323-2.246c2.266,0,4.114,0.627,5.167,1.097l1.792-5.328c-1.212-0.679-3.584-1.306-6.591-1.306c-6.645,0-11.338,3.5-11.338,8.827c0,3.134,2.479,5.274,5.432,6.737c2.374,1.149,3.217,2.039,3.217,3.29c0,1.256-1.107,2.299-3.217,2.299c-2.479,0-5.273-1.043-6.75-1.776L68.403,35.621L68.403,35.621z"></path><path d="M96.629,6.738l-0.95,4.806h-3.323L91,17h4l-2.381,10.369c-0.422,1.933-0.58,3.343-0.58,4.7c0,3.238,2.164,5.537,6.752,5.537c1.581,0,3.479-0.209,4.481-0.575l0.845-5.899c-0.634,0.104-1.425,0.104-2.057,0.104c-1.688,0-2.217-0.891-2.217-2.144c0-0.889,0.211-2.194,0.423-3.185L102,17h6l0.651-5.457h-5.537l1.319-6.895L96.629,6.738L96.629,6.738z"></path><path d="M127.621,30.137c-2.056,0.995-4.429,1.619-7.224,1.619c-2.218,0-3.957-0.677-4.957-1.933c-0.528-0.73-0.792-1.88-0.792-2.611c10.336,0.262,16.716-2.089,16.716-8.565c0-4.753-3.743-7.678-8.964-7.678c-9.336,0-15.029,8.096-15.029,15.878c0,6.635,3.796,10.76,11.179,10.76c2.848,0,6.593-0.522,9.6-2.037L127.621,30.137L127.621,30.137z M124.245,18.647c0,2.35-2.953,3.134-8.857,3.081c0.525-2.351,2.531-5.275,6.063-5.275c1.742,0,2.795,0.888,2.795,2.141V18.647L124.245,18.647z"></path><path d="M136.016,48l2.325-11.385h0.167c0.897,0.521,2.69,1.043,4.746,1.043c9.001,0,14.961-8.147,14.961-16.975c0-5.275-2.742-9.715-8.333-9.715c-3.103,0-6.152,1.514-8.262,4.283L142,11h-7c-0.317,2.612-0.719,7.386-1.3,10.415L128.578,48H136.016L136.016,48z M140.512,25.228c0.95-5.014,3.587-8.147,6.426-8.147c2.426,0,3.313,2.141,3.313,4.178c0,5.016-3.155,10.707-7.208,10.707c-1.528,0-2.635-0.47-3.479-1.199L140.512,25.228L140.512,25.228z"></path></g></svg>