<?xml version="1.0" encoding="utf-8"?>
<!-- Generator: Adobe Illustrator 16.0.0, SVG Export Plug-In . SVG Version: 6.00 Build 0)  -->
<!DOCTYPE svg PUBLIC "-//W3C//DTD SVG 1.1//EN" "http://www.w3.org/Graphics/SVG/1.1/DTD/svg11.dtd" [
	<!ENTITY ns_extend "http://ns.adobe.com/Extensibility/1.0/">
	<!ENTITY ns_ai "http://ns.adobe.com/AdobeIllustrator/10.0/">
	<!ENTITY ns_graphs "http://ns.adobe.com/Graphs/1.0/">
	<!ENTITY ns_vars "http://ns.adobe.com/Variables/1.0/">
	<!ENTITY ns_imrep "http://ns.adobe.com/ImageReplacement/1.0/">
	<!ENTITY ns_sfw "http://ns.adobe.com/SaveForWeb/1.0/">
	<!ENTITY ns_custom "http://ns.adobe.com/GenericCustomNamespace/1.0/">
	<!ENTITY ns_adobe_xpath "http://ns.adobe.com/XPath/1.0/">
]>
<svg version="1.1" id="Layer_1" xmlns:x="&ns_extend;" xmlns:i="&ns_ai;" xmlns:graph="&ns_graphs;"
	 xmlns="http://www.w3.org/2000/svg" xmlns:xlink="http://www.w3.org/1999/xlink" x="0px" y="0px" width="311.812px"
	 height="89.947px" viewBox="0 0 311.812 89.947" enable-background="new 0 0 311.812 89.947" xml:space="preserve">
<metadata>
	<sfw  xmlns="&ns_sfw;">
		<slices></slices>
		<sliceSourceBounds  height="89.947" width="311.812" y="-85.177" x="-104.533" bottomLeftOrigin="true"></sliceSourceBounds>
	</sfw>
</metadata>
<g>
	<path fill="#FFFFFF" d="M303.59,28.642h0.661c0.661,0,0.99,0.289,1.115,0.953c0.166,0.615,0.289,1.152,0.496,1.399h2.229
		c-0.124-0.204-0.247-0.615-0.454-1.566c-0.205-0.91-0.618-1.447-1.322-1.652v-0.082c0.868-0.252,1.488-0.827,1.488-1.488
		c0-0.66-0.289-1.157-0.703-1.404c-0.495-0.33-1.115-0.538-2.643-0.538c-1.362,0-2.479,0.166-2.933,0.251v6.48h2.064V28.642
		L303.59,28.642z M303.633,25.708c0.207,0,0.454-0.042,0.699-0.042c0.702,0,1.157,0.29,1.157,0.83c0,0.494-0.455,0.783-1.238,0.783
		h-0.618V25.708L303.633,25.708z M304.498,20.547c-4.088,0-7.351,3.183-7.351,7.104c0,3.965,3.263,7.145,7.351,7.145
		c4.131,0,7.313-3.18,7.313-7.145c0-3.922-3.183-7.104-7.272-7.104H304.498L304.498,20.547z M304.458,22.323
		c3.014,0,5.204,2.395,5.204,5.328c0,2.972-2.19,5.409-5.164,5.37c-2.973,0-5.161-2.398-5.161-5.328c0-2.976,2.188-5.37,5.078-5.37
		H304.458L304.458,22.323z"/>
	<path fill="#FFFFFF" d="M18.068,0L8.379,48.448c-0.586,2.838-1.076,5.776-1.076,8.713c0,8.513,5.676,13.406,17.031,13.406
		c21.531,0,31.71-17.813,31.71-33.278c0-8.514-4.501-16.733-14.486-16.733c-5.871,0-11.254,2.64-14.779,6.85h-0.195L32.26,0H18.068
		L18.068,0z M23.255,45.412c1.667-8.317,6.658-13.408,11.746-13.408c4.31,0,6.264,3.525,6.264,8.223
		c0,8.32-5.774,19.673-13.996,19.673c-3.326,0-5.283-1.857-5.384-5.283c-0.095-1.958,0.197-3.722,0.49-5.285L23.255,45.412
		L23.255,45.412z"/>
	<path fill="#FFFFFF" d="M69.831,69.491l9.103-47.86H64.839l-9.103,47.86H69.831L69.831,69.491z M73.746,15.662
		c4.502,0,8.319-2.94,8.319-7.928c0-4.211-2.938-6.95-7.047-6.95c-4.306,0-8.126,3.228-8.126,8.024c0,4.109,2.838,6.854,6.755,6.854
		H73.746L73.746,15.662z"/>
	<path fill="#FFFFFF" d="M0,89.947h93.955c1.993-0.009,4-0.178,6.037-0.489c2.168-0.333,4.29-0.882,6.329-1.665
		c2.055-0.798,3.948-1.874,5.696-3.229c1.907-1.55,3.504-3.406,4.809-5.592c1.289-2.189,2.368-4.604,3.198-7.244
		c0.833-2.659,1.534-5.448,2.071-8.405l7.245-39.44c-2.497-1.079-5.237-1.911-8.207-2.482c-2.951-0.554-6.133-0.848-9.508-0.848
		c-4.18,0.017-7.961,0.604-11.338,1.762c-3.395,1.143-6.379,2.738-8.974,4.763c-2.578,2.041-4.745,4.39-6.493,7.049
		c-1.762,2.657-3.066,5.529-3.962,8.581c-0.881,3.052-1.339,6.165-1.339,9.363c0.033,2.33,0.408,4.537,1.111,6.589
		c0.701,2.041,1.729,3.853,3.05,5.419c1.321,1.563,2.936,2.79,4.813,3.666c1.891,0.884,4.011,1.342,6.393,1.356
		c2.824,0,5.351-0.572,7.585-1.729c2.236-1.159,4.275-2.919,6.12-5.316h0.195l-0.784,4.012c-0.668,3.182-1.662,5.695-3,7.569
		c-1.354,1.862-2.985,3.199-4.894,3.995c-1.845,0.758-3.884,1.15-6.152,1.159H2.242L0,89.947L0,89.947z M111.625,45.021
		c-0.508,2.726-1.322,5.072-2.416,7.032c-1.109,1.972-2.398,3.492-3.85,4.566c-1.451,1.059-2.953,1.601-4.502,1.617
		c-1.435-0.017-2.628-0.378-3.588-1.096c-0.962-0.717-1.681-1.693-2.154-2.933c-0.473-1.258-0.721-2.678-0.721-4.294
		c0.018-2.299,0.376-4.548,1.079-6.751c0.716-2.187,1.729-4.178,3.019-5.954c1.305-1.795,2.838-3.215,4.616-4.26
		c1.779-1.061,3.736-1.612,5.872-1.631c0.997,0,1.959,0.081,2.873,0.264c0.914,0.163,1.664,0.356,2.218,0.619L111.625,45.021
		L111.625,45.021z"/>
	<path fill="#FFFFFF" d="M126.958,66.752c2.837,2.058,8.612,3.62,14.583,3.718c12.722,0.098,22.021-5.874,22.021-16.832
		c0-6.657-5.479-10.377-10.766-13.02c-3.819-1.859-5.773-3.523-5.773-5.482c0-2.641,2.445-4.207,6.165-4.207
		c4.209,0,7.636,1.175,9.593,2.056l3.327-9.983c-2.253-1.272-6.657-2.445-12.235-2.445c-12.331,0-21.042,6.554-21.042,16.539
		c0,5.872,4.601,9.886,10.081,12.623c4.406,2.156,5.969,3.822,5.969,6.169c0,2.35-2.053,4.305-5.969,4.305
		c-4.601,0-9.785-1.955-12.53-3.326L126.958,66.752L126.958,66.752z"/>
	<path fill="#FFFFFF" d="M179.344,12.624l-1.762,9.007h-6.167l-1.957,10.765h6.068l-3.623,18.891
		c-0.784,3.62-1.077,6.267-1.077,8.807c0,6.07,4.016,10.377,12.528,10.377c2.938,0,6.459-0.392,8.321-1.077l1.565-11.057
		c-1.175,0.195-2.642,0.195-3.817,0.195c-3.131,0-4.112-1.666-4.112-4.018c0-1.661,0.394-4.11,0.785-5.967l3.229-16.151h10.18
		l2.151-10.765h-10.275l2.446-12.922L179.344,12.624L179.344,12.624z"/>
	<path fill="#FFFFFF" d="M236.865,56.474c-3.816,1.862-8.221,3.033-13.409,3.033c-4.112,0-7.341-1.271-9.198-3.62
		c-0.98-1.373-1.471-3.523-1.471-4.894c19.184,0.489,31.025-3.915,31.025-16.051c0-8.907-6.947-14.387-16.638-14.387
		c-17.323,0-27.894,15.169-27.894,29.752c0,12.433,7.047,20.162,20.748,20.162c5.286,0,12.235-0.979,17.816-3.817L236.865,56.474
		L236.865,56.474z M230.603,34.942c0,4.404-5.483,5.872-16.442,5.771c0.977-4.404,4.697-9.883,11.254-9.883
		c3.23,0,5.188,1.664,5.188,4.012V34.942L230.603,34.942z"/>
	<path fill="#FFFFFF" d="M252.945,88.869l3.818-20.257h0.31c1.662,0.977,4.992,1.955,8.809,1.955
		c16.706,0,27.764-15.27,27.764-31.809c0-9.884-5.09-18.203-15.466-18.203c-5.756,0-11.417,2.836-15.333,8.024h-0.196l0.883-7.341
		h-12.643c-0.588,4.894-1.664,13.213-2.74,18.89l-9.298,48.74H252.945L252.945,88.869z M260.793,47.273
		c1.759-9.396,6.656-15.27,11.924-15.27c4.505,0,6.149,4.012,6.149,7.831c0,9.398-5.855,20.064-13.375,20.064
		c-2.841,0-4.893-0.882-6.46-2.25L260.793,47.273L260.793,47.273z"/>
</g>
</svg>
