<?xml version="1.0" encoding="utf-8"?>
<!-- Generator: Adobe Illustrator 23.0.1, SVG Export Plug-In . SVG Version: 6.00 Build 0)  -->
<svg version="1.1" id="Layer_1" xmlns="http://www.w3.org/2000/svg" xmlns:xlink="http://www.w3.org/1999/xlink" x="0px" y="0px"
	 width="208px" height="60px" viewBox="0 0 208 60" style="enable-background:new 0 0 208 60;" xml:space="preserve">
<style type="text/css">
	.st0{fill:#D91F2B;}
</style>
<g>
	<path class="st0" d="M202.5,19.1h0.4c0.4,0,0.7,0.2,0.7,0.6c0.1,0.4,0.2,0.8,0.3,0.9h1.5c-0.1-0.1-0.2-0.4-0.3-1
		c-0.1-0.6-0.4-1-0.9-1.1v-0.1c0.6-0.2,1-0.6,1-1c0-0.4-0.2-0.8-0.5-0.9c-0.3-0.2-0.7-0.4-1.8-0.4c-0.9,0-1.7,0.1-2,0.2v4.3h1.4
		V19.1L202.5,19.1z M202.5,17.1c0.1,0,0.3,0,0.5,0c0.5,0,0.8,0.2,0.8,0.6c0,0.3-0.3,0.5-0.8,0.5h-0.4V17.1L202.5,17.1z M203.1,13.7
		c-2.7,0-4.9,2.1-4.9,4.7c0,2.6,2.2,4.8,4.9,4.8c2.8,0,4.9-2.1,4.9-4.8C208,15.8,205.9,13.7,203.1,13.7L203.1,13.7L203.1,13.7z
		 M203.1,14.9c2,0,3.5,1.6,3.5,3.6c0,2-1.5,3.6-3.4,3.6c-2,0-3.4-1.6-3.4-3.6C199.7,16.5,201.1,14.9,203.1,14.9L203.1,14.9
		L203.1,14.9z"/>
	<path class="st0" d="M12.1,0L5.6,32.3c-0.4,1.9-0.7,3.8-0.7,5.8c0,5.7,3.8,8.9,11.4,8.9c14.4,0,21.2-11.9,21.2-22.2
		c0-5.7-3-11.2-9.7-11.2c-3.9,0-7.5,1.8-9.9,4.6h-0.1L21.5,0H12.1L12.1,0z M15.5,30.3c1.1-5.5,4.4-8.9,7.8-8.9
		c2.9,0,4.2,2.4,4.2,5.5c0,5.6-3.9,13.1-9.3,13.1c-2.2,0-3.5-1.2-3.6-3.5c-0.1-1.3,0.1-2.5,0.3-3.5L15.5,30.3L15.5,30.3z"/>
	<path class="st0" d="M46.6,46.4l6.1-31.9h-9.4l-6.1,31.9H46.6L46.6,46.4z M49.2,10.4c3,0,5.5-2,5.5-5.3c0-2.8-2-4.6-4.7-4.6
		c-2.9,0-5.4,2.2-5.4,5.4C44.6,8.6,46.5,10.4,49.2,10.4L49.2,10.4L49.2,10.4z"/>
	<path class="st0" d="M0,60h62.7c1.3,0,2.7-0.1,4-0.3c1.4-0.2,2.9-0.6,4.2-1.1c1.4-0.5,2.6-1.3,3.8-2.2c1.3-1,2.3-2.3,3.2-3.7
		c0.9-1.5,1.6-3.1,2.1-4.8c0.6-1.8,1-3.6,1.4-5.6l4.8-26.3c-1.7-0.7-3.5-1.3-5.5-1.7c-2-0.4-4.1-0.6-6.3-0.6c-2.8,0-5.3,0.4-7.6,1.2
		c-2.3,0.8-4.3,1.8-6,3.2c-1.7,1.4-3.2,2.9-4.3,4.7c-1.2,1.8-2,3.7-2.6,5.7c-0.6,2-0.9,4.1-0.9,6.2c0,1.6,0.3,3,0.7,4.4
		c0.5,1.4,1.2,2.6,2,3.6c0.9,1,2,1.9,3.2,2.4c1.3,0.6,2.7,0.9,4.3,0.9c1.9,0,3.6-0.4,5.1-1.2c1.5-0.8,2.9-1.9,4.1-3.5h0.1L72,44.1
		c-0.4,2.1-1.1,3.8-2,5c-0.9,1.2-2,2.1-3.3,2.7c-1.2,0.5-2.6,0.8-4.1,0.8H1.5L0,60L0,60z M74.5,30c-0.3,1.8-0.9,3.4-1.6,4.7
		c-0.7,1.3-1.6,2.3-2.6,3c-1,0.7-2,1.1-3,1.1c-1,0-1.8-0.3-2.4-0.7c-0.6-0.5-1.1-1.1-1.4-2c-0.3-0.8-0.5-1.8-0.5-2.9
		c0-1.5,0.3-3,0.7-4.5c0.5-1.5,1.2-2.8,2-4c0.9-1.2,1.9-2.1,3.1-2.8c1.2-0.7,2.5-1.1,3.9-1.1c0.7,0,1.3,0.1,1.9,0.2
		c0.6,0.1,1.1,0.2,1.5,0.4L74.5,30L74.5,30z"/>
	<path class="st0" d="M84.7,44.5c1.9,1.4,5.7,2.4,9.7,2.5c8.5,0.1,14.7-3.9,14.7-11.2c0-4.4-3.7-6.9-7.2-8.7
		c-2.5-1.2-3.9-2.3-3.9-3.7c0-1.8,1.6-2.8,4.1-2.8c2.8,0,5.1,0.8,6.4,1.4l2.2-6.7c-1.5-0.8-4.4-1.6-8.2-1.6c-8.2,0-14,4.4-14,11
		c0,3.9,3.1,6.6,6.7,8.4c2.9,1.4,4,2.5,4,4.1c0,1.6-1.4,2.9-4,2.9c-3.1,0-6.5-1.3-8.4-2.2L84.7,44.5L84.7,44.5z"/>
	<path class="st0" d="M119.6,8.4l-1.2,6h-4.1l-1.3,7.2h4l-2.4,12.6c-0.5,2.4-0.7,4.2-0.7,5.9c0,4,2.7,6.9,8.4,6.9
		c2,0,4.3-0.3,5.6-0.7l1-7.4c-0.8,0.1-1.8,0.1-2.5,0.1c-2.1,0-2.7-1.1-2.7-2.7c0-1.1,0.3-2.7,0.5-4l2.2-10.8h6.8l1.4-7.2h-6.9
		l1.6-8.6L119.6,8.4L119.6,8.4z"/>
	<path class="st0" d="M158,37.7c-2.5,1.2-5.5,2-8.9,2c-2.7,0-4.9-0.8-6.1-2.4c-0.7-0.9-1-2.3-1-3.3c12.8,0.3,20.7-2.6,20.7-10.7
		c0-5.9-4.6-9.6-11.1-9.6c-11.6,0-18.6,10.1-18.6,19.8c0,8.3,4.7,13.4,13.8,13.4c3.5,0,8.2-0.7,11.9-2.5L158,37.7L158,37.7z
		 M153.8,23.3c0,2.9-3.7,3.9-11,3.9c0.7-2.9,3.1-6.6,7.5-6.6C152.5,20.6,153.8,21.7,153.8,23.3L153.8,23.3L153.8,23.3z"/>
	<path class="st0" d="M168.7,59.3l2.5-13.5h0.2c1.1,0.7,3.3,1.3,5.9,1.3c11.1,0,18.5-10.2,18.5-21.2c0-6.6-3.4-12.1-10.3-12.1
		c-3.8,0-7.6,1.9-10.2,5.4h-0.1l0.6-4.9h-8.4c-0.4,3.3-1.1,8.8-1.8,12.6l-6.2,32.5H168.7L168.7,59.3z M174,31.5
		c1.2-6.3,4.4-10.2,8-10.2c3,0,4.1,2.7,4.1,5.2c0,6.3-3.9,13.4-8.9,13.4c-1.9,0-3.3-0.6-4.3-1.5L174,31.5L174,31.5z"/>
</g>
</svg>
